<svg width="35" height="35" viewBox="0 0 35 35" fill="none" xmlns="http://www.w3.org/2000/svg">
<path d="M17.5005 31.7191C24.0943 29.4462 28.7945 24.1627 29.5317 17.4354C29.7362 14.5151 29.7189 11.5834 29.4799 8.66572C29.4485 8.20576 29.2467 7.77406 28.9139 7.45501C28.5811 7.13597 28.1412 6.95251 27.6803 6.94051C24.6973 6.84864 21.2301 6.35135 18.5512 3.71249C18.2714 3.43619 17.894 3.28125 17.5008 3.28125C17.1076 3.28125 16.7302 3.43619 16.4505 3.71249C13.7708 6.35135 10.3036 6.84864 7.32128 6.94051C6.86041 6.95251 6.42058 7.13597 6.08777 7.45501C5.75497 7.77406 5.55313 8.20576 5.5217 8.66572C5.28251 11.5834 5.26496 14.5151 5.4692 17.4354C6.20639 24.1627 10.9066 29.4462 17.5005 31.7191Z" stroke="#A50230" stroke-width="1.875" stroke-linecap="round" stroke-linejoin="round"/>
<path d="M15.458 19.4578L12.6252 16.625L11.083 18.1672L15.458 22.5422L24.208 13.7922L22.6658 12.25L15.458 19.4578Z" fill="#A50230"/>
</svg>
