<svg version="1.2" xmlns="http://www.w3.org/2000/svg" viewBox="0 0 40 40" width="40" height="40">
	<title>Unconfirmed 856533</title>
	<style>
		.s0 { fill: #000000;stroke: #ffffff;stroke-linecap: round;stroke-linejoin: round;stroke-width: 2.5 } 
	</style>
	<path fill-rule="evenodd" class="s0" d="m31.5 7.9c1.5 0.5 2.2 0.8 2.5 1.1 0.3 0.4 0.4 0.9 0.6 1.9 1.8 11-2.3 21.2-12.1 25.1-1 0.5-1.5 0.7-2.5 0.7-1 0-1.5-0.2-2.5-0.7-9.8-3.9-13.9-14.1-12.1-25.1 0.2-1 0.3-1.5 0.6-1.9 0.3-0.3 1-0.6 2.5-1.1 3.7-1.2 6.7-4.6 11.5-4.6 4.7 0 7.8 3.4 11.5 4.6zm-14.8 16.2h6.6c0.5 0 0.9-0.2 1.2-0.5 0.3-0.3 0.5-0.7 0.5-1.2v-6.6c0-0.4-0.2-0.9-0.5-1.2-0.3-0.3-0.7-0.5-1.2-0.5h-6.6c-0.5 0-0.9 0.2-1.2 0.5-0.3 0.3-0.5 0.8-0.5 1.2v6.6c0 0.5 0.2 0.9 0.5 1.2 0.3 0.3 0.7 0.5 1.2 0.5z"/>
</svg>