<svg width="40" height="40" viewBox="0 0 40 40" fill="none" xmlns="http://www.w3.org/2000/svg">
<path d="M19.9967 3.33374C15.2467 3.33374 12.1684 6.69874 8.52675 7.92541C7.04675 8.42541 6.30508 8.67374 6.00675 9.02541C5.70675 9.37541 5.61841 9.89041 5.44341 10.9171C3.56508 21.9104 7.67008 32.0737 17.4584 36.0304C18.5101 36.4554 19.0367 36.6671 20.0017 36.6671C20.9667 36.6671 21.4951 36.4537 22.5467 36.0287C32.3351 32.0737 36.4351 21.9104 34.5567 10.9171C34.3801 9.89041 34.2934 9.37541 33.9934 9.02374C33.6934 8.67207 32.9534 8.42374 31.4734 7.92541C27.8301 6.69874 24.7467 3.33374 19.9967 3.33374Z" stroke="white" stroke-width="2.5" stroke-linecap="round" stroke-linejoin="round"/>
<path d="M17.4162 10.8357V14.134M11.6045 16.669H15.0245M24.9762 16.669H28.3962M24.9762 21.6257H28.3962M11.6045 21.6257H15.0245M17.4162 24.2007V27.5007M22.4578 24.2007V27.5007M22.4412 10.8357V14.134M16.6912 24.1157H23.3095C23.7515 24.1157 24.1754 23.9401 24.488 23.6275C24.8006 23.315 24.9762 22.8911 24.9762 22.449V15.8007C24.9762 15.3587 24.8006 14.9347 24.488 14.6222C24.1754 14.3096 23.7515 14.134 23.3095 14.134H16.6912C16.2491 14.134 15.8252 14.3096 15.5126 14.6222C15.2001 14.9347 15.0245 15.3587 15.0245 15.8007V22.449C15.0245 22.8911 15.2001 23.315 15.5126 23.6275C15.8252 23.9401 16.2491 24.1157 16.6912 24.1157Z" stroke="white" stroke-width="2.5" stroke-linecap="round" stroke-linejoin="round"/>
</svg>
