<svg width="34" height="36" viewBox="0 0 34 36" fill="none" xmlns="http://www.w3.org/2000/svg">
<path d="M16.9967 1.33374C12.2467 1.33374 9.16841 4.69874 5.52675 5.92541C4.04675 6.42541 3.30508 6.67374 3.00675 7.02541C2.70675 7.37541 2.61841 7.89041 2.44341 8.91707C0.565079 19.9104 4.67008 30.0737 14.4584 34.0304C15.5101 34.4554 16.0367 34.6671 17.0017 34.6671C17.9667 34.6671 18.4951 34.4537 19.5467 34.0287C29.3351 30.0737 33.4351 19.9104 31.5567 8.91707C31.3801 7.89041 31.2934 7.37541 30.9934 7.02374C30.6934 6.67207 29.9534 6.42374 28.4734 5.92541C24.8301 4.69874 21.7467 1.33374 16.9967 1.33374Z" stroke="white" stroke-width="2.5" stroke-linecap="round" stroke-linejoin="round"/>
<path d="M14.4162 8.83569V12.134M8.60449 14.669H12.0245M21.9762 14.669H25.3962M21.9762 19.6257H25.3962M8.60449 19.6257H12.0245M14.4162 22.2007V25.5007M19.4578 22.2007V25.5007M19.4412 8.83569V12.134M13.6912 22.1157H20.3095C20.7515 22.1157 21.1754 21.9401 21.488 21.6275C21.8006 21.315 21.9762 20.8911 21.9762 20.449V13.8007C21.9762 13.3587 21.8006 12.9347 21.488 12.6222C21.1754 12.3096 20.7515 12.134 20.3095 12.134H13.6912C13.2491 12.134 12.8252 12.3096 12.5126 12.6222C12.2001 12.9347 12.0245 13.3587 12.0245 13.8007V20.449C12.0245 20.8911 12.2001 21.315 12.5126 21.6275C12.8252 21.9401 13.2491 22.1157 13.6912 22.1157Z" stroke="white" stroke-width="2.5" stroke-linecap="round" stroke-linejoin="round"/>
</svg>
